<svg id="Layer_1" data-name="Layer 1" xmlns="http://www.w3.org/2000/svg" viewBox="0 0 1080 1080"><defs><style>.cls-1{fill:#fff;}.cls-2{fill:#3f51b5;}.cls-3{fill:none;}</style></defs><rect class="cls-1" width="1080" height="1080" rx="540"/><path class="cls-1" d="M727.83,415.84l-103.1,27.63L524,618.11l137.59-36.88.06,0,0,0h0L636.56,625l-.08,0-.22.06L560.81,755.8l23.77-116.88L430,680.27,304.09,898.36l309.8-83c152-40.73,242.18-197,201.44-349h0A71.43,71.43,0,0,0,727.83,415.84Z"/><path class="cls-1" d="M495.09,441.36,650,399.86l126-218.22L466,264.71c-152,40.73-242.17,197-201.43,348.94h0A71.41,71.41,0,0,0,352,664.14l103.1-27.65L555.89,461.92,418.14,498.84l25.17-43.6h0l75.62-131L495.11,441.34Z"/><path class="cls-2" d="M727.83,415.84l-103.1,27.63L524,618.11l137.59-36.88.06,0,0,0h0L636.56,625l-.08,0-.22.06L560.81,755.8l23.77-116.88L430,680.27,304.09,898.36l309.8-83c152-40.73,242.18-197,201.44-349h0A71.43,71.43,0,0,0,727.83,415.84Z"/><path class="cls-2" d="M495.09,441.36,650,399.86l126-218.22L466,264.71c-152,40.73-242.17,197-201.43,348.94h0A71.41,71.41,0,0,0,352,664.14l103.1-27.65L555.89,461.92,418.14,498.84l25.17-43.6h0l75.62-131L495.11,441.34Z"/><circle class="cls-3" cx="540" cy="540" r="540"/></svg>